<!-- <?xml version="1.0" encoding="UTF-8" standalone="no"?>
<!DOCTYPE svg PUBLIC "-//W3C//DTD SVG 20010904//EN"
              "http://www.w3.org/TR/2001/REC-SVG-20010904/DTD/svg10.dtd"> -->

<!-- <svg xmlns="http://www.w3.org/2000/svg"
     width="14.2222in" height="14.2222in"
     viewBox="0 0 1024 1024"> -->
  <path id="Sélection #1"
        fill="none" stroke="black" stroke-width="1"
        d="M 231.00,143.00
           C 231.00,143.00 233.00,143.00 233.00,143.00
             233.00,143.00 231.58,152.00 231.58,152.00
             231.52,155.85 232.26,155.79 231.58,160.99
             231.58,160.99 229.08,170.04 229.08,170.04
             228.74,175.80 231.94,185.84 229.08,196.00
             233.18,197.39 231.97,206.56 231.00,210.00
             231.00,210.00 233.00,215.00 233.00,215.00
             233.00,215.00 233.00,213.00 233.00,213.00
             233.00,213.00 234.00,213.00 234.00,213.00
             234.00,213.00 235.00,228.00 235.00,228.00
             235.00,228.00 237.00,228.00 237.00,228.00
             237.00,228.00 239.00,234.00 239.00,234.00
             239.00,234.00 240.00,236.00 240.00,236.00
             240.00,236.00 242.00,242.00 242.00,242.00
             242.00,242.00 241.00,244.00 241.00,244.00
             244.49,246.25 244.54,248.09 245.00,252.00
             245.00,252.00 247.00,251.00 247.00,251.00
             247.00,251.00 247.00,256.00 247.00,256.00
             247.00,256.00 252.00,258.00 252.00,258.00
             252.00,258.00 252.00,264.00 252.00,264.00
             252.00,264.00 256.00,266.00 256.00,266.00
             256.00,266.00 255.00,268.00 255.00,268.00
             255.00,268.00 263.00,272.00 263.00,272.00
             264.06,278.85 275.02,284.58 279.00,293.00
             282.48,293.71 282.35,293.87 284.00,297.00
             284.00,297.00 295.00,300.00 295.00,300.00
             295.00,300.00 309.00,312.00 309.00,312.00
             315.16,311.35 319.45,314.39 325.00,316.47
             325.00,316.47 347.00,323.27 347.00,323.27
             347.00,323.27 373.00,327.58 373.00,327.58
             376.79,328.08 380.46,327.60 384.00,329.00
             384.00,329.00 382.00,330.00 382.00,330.00
             382.00,330.00 387.00,329.00 387.00,329.00
             387.00,329.00 387.00,349.00 387.00,349.00
             383.92,352.59 383.89,354.40 384.00,359.00
             381.53,362.13 381.61,363.09 382.00,367.00
             379.03,370.48 378.82,372.51 379.00,377.00
             379.00,377.00 378.00,380.00 378.00,380.00
             374.65,380.84 375.07,385.07 375.00,388.00
             375.00,388.00 369.62,393.41 369.62,393.41
             369.62,393.41 354.00,392.00 354.00,392.00
             354.00,392.00 354.00,390.00 354.00,390.00
             354.00,390.00 344.00,389.00 344.00,389.00
             344.00,389.00 344.00,387.00 344.00,387.00
             335.02,387.64 318.03,375.38 312.00,375.00
             312.00,375.00 312.00,373.00 312.00,373.00
             312.00,373.00 306.00,372.00 306.00,372.00
             306.00,372.00 306.00,370.00 306.00,370.00
             306.00,370.00 298.00,368.00 298.00,368.00
             295.43,364.93 294.13,363.29 290.00,363.00
             290.00,363.00 285.00,357.00 285.00,357.00
             285.00,357.00 283.00,359.00 283.00,359.00
             283.00,359.00 284.00,356.00 284.00,356.00
             284.00,356.00 268.00,346.00 268.00,346.00
             268.00,346.00 261.00,337.00 261.00,337.00
             261.00,337.00 248.00,324.00 248.00,324.00
             247.10,320.48 243.54,315.10 240.00,314.00
             239.53,309.24 235.53,304.94 232.00,302.00
             232.00,302.00 229.00,290.00 229.00,290.00
             223.38,286.94 224.99,284.61 222.00,280.00
             222.14,276.11 222.44,275.17 220.00,272.00
             220.00,272.00 219.00,261.00 219.00,261.00
             219.00,261.00 217.00,262.00 217.00,262.00
             217.00,262.00 215.68,243.00 215.68,243.00
             215.68,243.00 214.22,236.00 214.22,236.00
             214.22,236.00 214.22,230.00 214.22,230.00
             214.22,230.00 214.22,212.00 214.22,212.00
             214.22,212.00 214.22,190.00 214.22,190.00
             211.40,202.91 209.82,212.82 208.91,226.00
             208.56,231.15 207.48,235.57 208.13,240.96
             208.13,240.96 209.57,246.28 209.57,246.28
             210.44,250.12 207.86,259.35 212.00,261.00
             212.00,261.00 213.00,267.00 213.00,267.00
             212.23,272.11 216.35,286.15 220.00,290.00
             219.77,295.17 222.46,301.30 226.00,305.00
             226.51,311.75 237.96,328.49 243.00,333.00
             243.00,333.00 252.00,347.00 252.00,347.00
             259.74,348.51 263.33,360.95 272.00,363.00
             272.00,363.00 273.00,364.00 273.00,364.00
             273.00,364.00 272.00,366.00 272.00,366.00
             272.00,366.00 282.00,372.00 282.00,372.00
             284.61,375.36 284.90,375.78 289.00,377.00
             289.92,379.94 291.07,380.45 294.00,381.00
             297.41,384.65 303.90,388.85 309.00,389.00
             309.00,389.00 310.00,392.00 310.00,392.00
             310.00,392.00 312.00,393.00 312.00,393.00
             312.00,393.00 327.00,398.00 327.00,398.00
             331.72,402.65 345.35,406.92 352.00,408.98
             354.33,409.70 360.55,410.64 361.13,413.30
             361.39,414.53 360.77,415.91 360.18,416.95
             358.02,420.79 355.95,421.03 352.00,419.96
             352.00,419.96 314.99,408.10 314.99,408.10
             311.39,406.43 306.15,405.12 304.00,402.00
             304.00,402.00 301.00,403.00 301.00,403.00
             301.00,403.00 296.00,400.00 296.00,400.00
             294.87,396.67 292.40,395.29 289.00,395.00
             288.05,392.18 286.80,392.08 284.00,392.00
             284.00,392.00 279.00,386.00 279.00,386.00
             270.28,383.44 262.78,374.04 256.58,367.72
             253.23,364.30 249.91,361.83 249.00,357.00
             244.87,354.64 240.88,350.77 240.00,346.00
             240.00,346.00 238.00,343.00 238.00,343.00
             233.90,341.62 233.15,340.27 233.00,336.00
             226.54,332.77 216.29,315.30 217.00,308.00
             217.00,308.00 216.00,306.00 216.00,306.00
             216.00,306.00 214.00,306.00 214.00,306.00
             214.00,306.00 212.00,296.00 212.00,296.00
             212.00,296.00 204.00,283.00 204.00,283.00
             204.00,283.00 204.00,282.00 204.00,282.00
             204.00,282.00 206.00,282.00 206.00,282.00
             206.00,282.00 206.00,280.00 206.00,280.00
             203.33,276.97 203.47,265.31 203.26,261.00
             203.26,261.00 201.03,244.99 201.03,244.99
             201.03,244.99 202.32,235.00 202.32,235.00
             202.32,235.00 202.32,228.00 202.32,228.00
             202.32,228.00 204.88,215.00 204.88,215.00
             205.50,209.96 205.12,199.20 209.00,196.00
             209.00,196.00 209.00,187.00 209.00,187.00
             209.00,187.00 215.00,177.00 215.00,177.00
             214.55,172.59 215.14,170.39 219.00,168.00
             219.37,160.91 226.73,148.72 231.00,143.00 Z
           M 782.00,143.00
           C 786.95,147.63 791.59,158.61 795.00,165.00
             805.55,184.80 812.96,212.52 813.00,235.00
             813.00,235.00 813.00,247.00 813.00,247.00
             813.00,247.00 811.00,274.00 811.00,274.00
             811.00,274.00 805.00,290.00 805.00,290.00
             805.68,293.51 805.94,294.70 803.00,297.00
             803.00,297.00 802.00,300.00 802.00,300.00
             802.56,304.42 801.88,307.48 798.00,310.00
             798.43,315.18 795.53,321.36 791.00,324.00
             791.00,324.00 792.00,326.00 792.00,326.00
             792.00,326.00 790.00,326.00 790.00,326.00
             789.80,329.32 789.84,329.25 787.00,331.00
             786.64,334.21 786.74,334.25 784.00,336.00
             783.64,339.21 783.74,339.25 781.00,341.00
             781.00,341.00 778.00,345.00 778.00,345.00
             777.29,348.48 777.13,348.35 774.00,350.00
             773.12,356.15 767.54,360.61 763.40,364.92
             751.85,376.92 730.16,391.86 727.00,395.00
             727.00,395.00 724.00,394.00 724.00,394.00
             722.70,396.36 722.79,396.96 720.00,397.00
             720.00,397.00 718.00,400.00 718.00,400.00
             718.00,400.00 715.00,402.00 715.00,402.00
             715.00,402.00 711.00,404.00 711.00,404.00
             705.00,404.31 694.78,410.29 689.00,412.81
             689.00,412.81 659.00,421.00 659.00,421.00
             659.00,421.00 654.00,411.00 654.00,411.00
             663.55,410.55 672.28,406.59 681.00,402.99
             696.48,396.60 717.13,385.90 731.00,376.65
             736.37,373.07 750.44,363.89 752.00,358.00
             755.74,357.06 763.01,349.69 764.00,346.00
             769.04,342.37 774.15,335.18 777.66,330.00
             785.88,317.84 793.02,303.94 797.67,290.00
             799.92,283.24 802.69,276.20 802.00,269.00
             806.40,263.26 806.59,249.16 806.35,242.00
             806.35,242.00 807.00,229.00 807.00,229.00
             807.01,219.52 805.66,203.62 802.00,195.00
             802.00,195.00 802.93,216.00 802.93,216.00
             802.93,216.00 802.93,225.00 802.93,225.00
             803.46,234.20 801.74,230.69 801.72,236.04
             801.70,239.91 803.64,248.56 799.00,250.00
             799.00,250.00 797.00,269.00 797.00,269.00
             797.00,269.00 795.53,271.22 795.53,271.22
             795.53,271.22 791.00,290.00 791.00,290.00
             791.00,290.00 786.00,295.00 786.00,295.00
             786.00,295.00 787.00,298.00 787.00,298.00
             783.62,299.24 783.43,302.23 781.92,305.17
             779.51,309.87 772.40,317.75 772.00,322.00
             772.00,322.00 761.00,332.00 761.00,332.00
             761.00,332.00 750.00,342.91 750.00,342.91
             750.00,342.91 736.00,356.00 736.00,356.00
             732.84,356.56 718.39,366.45 716.00,369.00
             716.00,369.00 714.00,368.00 714.00,368.00
             714.00,368.00 705.00,375.00 705.00,375.00
             700.95,375.22 695.12,378.59 691.00,380.19
             691.00,380.19 661.00,391.12 661.00,391.12
             656.89,392.21 648.13,395.65 644.70,392.40
             642.99,390.79 641.78,386.30 641.00,384.00
             639.54,379.73 635.52,367.95 633.00,365.00
             633.00,365.00 632.00,361.00 632.00,361.00
             632.00,361.00 627.00,331.00 627.00,331.00
             632.81,329.81 638.06,327.48 644.00,329.00
             644.00,329.00 651.15,326.72 651.15,326.72
             651.15,326.72 672.00,324.00 672.00,324.00
             674.15,321.47 676.87,321.65 680.00,322.00
             680.00,322.00 683.00,321.00 683.00,321.00
             683.00,321.00 686.00,320.00 686.00,320.00
             688.34,316.97 696.29,314.65 700.00,315.00
             702.13,311.86 703.32,311.83 707.00,312.00
             707.00,312.00 709.00,311.00 709.00,311.00
             711.07,307.47 711.92,307.05 716.00,307.00
             716.00,307.00 721.00,302.00 721.00,302.00
             721.00,302.00 723.00,303.00 723.00,303.00
             725.38,299.33 730.67,295.47 735.00,295.00
             737.68,289.33 740.31,288.39 744.00,283.83
             753.73,271.80 758.67,267.95 766.58,254.00
             769.67,248.54 775.89,232.66 780.00,230.00
             780.00,230.00 783.72,209.42 783.72,209.42
             783.72,209.42 786.00,202.00 786.00,202.00
             786.00,202.00 784.00,196.00 784.00,196.00
             788.63,190.21 785.73,186.53 786.09,180.00
             786.09,180.00 786.66,174.00 786.66,174.00
             786.66,174.00 782.00,143.00 782.00,143.00 Z
           M 227.00,151.00
           C 227.00,151.00 226.00,151.00 226.00,151.00
             226.00,151.00 227.00,152.00 227.00,152.00
             227.00,152.00 227.00,151.00 227.00,151.00 Z
           M 218.00,169.00
           C 218.00,169.00 217.00,169.00 217.00,169.00
             217.00,169.00 218.00,170.00 218.00,170.00
             218.00,170.00 218.00,169.00 218.00,169.00 Z
           M 798.00,168.00
           C 798.00,168.00 799.00,168.00 799.00,168.00
             799.00,168.00 798.00,169.00 798.00,169.00
             798.00,169.00 798.00,168.00 798.00,168.00 Z
           M 784.00,180.00
           C 784.00,180.00 785.00,180.00 785.00,180.00
             785.00,180.00 784.00,181.00 784.00,181.00
             784.00,181.00 784.00,180.00 784.00,180.00 Z
           M 784.00,192.00
           C 784.00,192.00 785.00,192.00 785.00,192.00
             785.00,192.00 784.00,193.00 784.00,193.00
             784.00,193.00 784.00,192.00 784.00,192.00 Z
           M 802.00,194.00
           C 802.00,194.00 801.00,194.00 801.00,194.00
             801.00,194.00 802.00,195.00 802.00,195.00
             802.00,195.00 802.00,194.00 802.00,194.00 Z
           M 811.00,206.00
           C 811.00,206.00 812.00,206.00 812.00,206.00
             812.00,206.00 811.00,207.00 811.00,207.00
             811.00,207.00 811.00,206.00 811.00,206.00 Z
           M 212.00,208.00
           C 212.00,208.00 213.00,208.00 213.00,208.00
             213.00,208.00 212.00,209.00 212.00,209.00
             212.00,209.00 212.00,208.00 212.00,208.00 Z
           M 783.00,220.00
           C 783.00,220.00 782.00,220.00 782.00,220.00
             782.00,220.00 783.00,221.00 783.00,221.00
             783.00,221.00 783.00,220.00 783.00,220.00 Z
           M 212.00,223.00
           C 212.00,223.00 213.00,223.00 213.00,223.00
             213.00,223.00 212.00,224.00 212.00,224.00
             212.00,224.00 212.00,223.00 212.00,223.00 Z
           M 776.00,238.00
           C 776.00,238.00 775.00,238.00 775.00,238.00
             775.00,238.00 776.00,239.00 776.00,239.00
             776.00,239.00 776.00,238.00 776.00,238.00 Z
           M 209.00,243.00
           C 209.00,243.00 210.00,243.00 210.00,243.00
             210.00,243.00 209.00,244.00 209.00,244.00
             209.00,244.00 209.00,243.00 209.00,243.00 Z
           M 247.00,253.00
           C 247.00,253.00 246.00,253.00 246.00,253.00
             246.00,253.00 247.00,254.00 247.00,254.00
             247.00,254.00 247.00,253.00 247.00,253.00 Z
           M 251.00,260.00
           C 251.00,260.00 250.00,260.00 250.00,260.00
             250.00,260.00 251.00,261.00 251.00,261.00
             251.00,261.00 251.00,260.00 251.00,260.00 Z
           M 205.00,267.00
           C 205.00,267.00 204.00,267.00 204.00,267.00
             204.00,267.00 205.00,268.00 205.00,268.00
             205.00,268.00 205.00,267.00 205.00,267.00 Z
           M 259.00,271.00
           C 259.00,271.00 258.00,271.00 258.00,271.00
             258.00,271.00 259.00,272.00 259.00,272.00
             259.00,272.00 259.00,271.00 259.00,271.00 Z
           M 260.00,272.00
           C 260.00,272.00 259.00,272.00 259.00,272.00
             259.00,272.00 260.00,273.00 260.00,273.00
             260.00,273.00 260.00,272.00 260.00,272.00 Z
           M 206.00,273.00
           C 206.00,273.00 205.00,273.00 205.00,273.00
             205.00,273.00 206.00,274.00 206.00,274.00
             206.00,274.00 206.00,273.00 206.00,273.00 Z
           M 207.00,278.00
           C 207.00,278.00 206.00,278.00 206.00,278.00
             206.00,278.00 207.00,279.00 207.00,279.00
             207.00,279.00 207.00,278.00 207.00,278.00 Z
           M 208.00,283.00
           C 208.00,283.00 207.00,283.00 207.00,283.00
             207.00,283.00 208.00,284.00 208.00,284.00
             208.00,284.00 208.00,283.00 208.00,283.00 Z
           M 225.00,283.00
           C 225.00,283.00 224.00,283.00 224.00,283.00
             224.00,283.00 225.00,284.00 225.00,284.00
             225.00,284.00 225.00,283.00 225.00,283.00 Z
           M 271.00,284.00
           C 271.00,284.00 270.00,284.00 270.00,284.00
             270.00,284.00 271.00,285.00 271.00,285.00
             271.00,285.00 271.00,284.00 271.00,284.00 Z
           M 272.00,285.00
           C 272.00,285.00 271.00,285.00 271.00,285.00
             271.00,285.00 272.00,286.00 272.00,286.00
             272.00,286.00 272.00,285.00 272.00,285.00 Z
           M 209.00,287.00
           C 209.00,287.00 208.00,287.00 208.00,287.00
             208.00,287.00 209.00,288.00 209.00,288.00
             209.00,288.00 209.00,287.00 209.00,287.00 Z
           M 227.00,287.00
           C 227.00,287.00 226.00,287.00 226.00,287.00
             226.00,287.00 227.00,288.00 227.00,288.00
             227.00,288.00 227.00,287.00 227.00,287.00 Z
           M 274.00,287.00
           C 274.00,287.00 273.00,287.00 273.00,287.00
             273.00,287.00 274.00,288.00 274.00,288.00
             274.00,288.00 274.00,287.00 274.00,287.00 Z
           M 275.00,288.00
           C 275.00,288.00 274.00,288.00 274.00,288.00
             274.00,288.00 275.00,289.00 275.00,289.00
             275.00,289.00 275.00,288.00 275.00,288.00 Z
           M 276.00,289.00
           C 276.00,289.00 275.00,289.00 275.00,289.00
             275.00,289.00 276.00,290.00 276.00,290.00
             276.00,290.00 276.00,289.00 276.00,289.00 Z
           M 230.00,292.00
           C 230.00,292.00 229.00,292.00 229.00,292.00
             229.00,292.00 230.00,293.00 230.00,293.00
             230.00,293.00 230.00,292.00 230.00,292.00 Z
           M 281.00,293.00
           C 281.00,293.00 280.00,293.00 280.00,293.00
             280.00,293.00 281.00,294.00 281.00,294.00
             281.00,294.00 281.00,293.00 281.00,293.00 Z
           M 731.00,297.00
           C 731.00,297.00 730.00,297.00 730.00,297.00
             730.00,297.00 731.00,298.00 731.00,298.00
             731.00,298.00 731.00,297.00 731.00,297.00 Z
           M 214.00,301.00
           C 214.00,301.00 213.00,301.00 213.00,301.00
             213.00,301.00 214.00,302.00 214.00,302.00
             214.00,302.00 214.00,301.00 214.00,301.00 Z
           M 234.00,301.00
           C 234.00,301.00 233.00,301.00 233.00,301.00
             233.00,301.00 234.00,302.00 234.00,302.00
             234.00,302.00 234.00,301.00 234.00,301.00 Z
           M 791.00,300.00
           C 791.00,300.00 792.00,300.00 792.00,300.00
             792.00,300.00 791.00,301.00 791.00,301.00
             791.00,301.00 791.00,300.00 791.00,300.00 Z
           M 495.00,306.00
           C 496.00,303.22 499.37,304.01 502.00,304.00
             504.42,304.00 515.80,303.67 517.23,304.54
             518.24,305.15 517.82,305.48 518.00,306.00
             526.94,303.86 536.40,308.83 546.00,309.00
             546.00,309.00 552.00,313.00 552.00,313.00
             552.00,313.00 555.00,312.00 555.00,312.00
             558.39,315.42 570.00,316.88 571.00,324.00
             571.00,324.00 590.17,335.53 590.17,335.53
             590.17,335.53 607.00,339.00 607.00,339.00
             607.00,339.00 605.00,340.00 605.00,340.00
             605.00,340.00 610.00,340.00 610.00,340.00
             610.00,350.23 611.85,360.07 614.23,370.00
             614.96,373.04 617.91,380.37 617.22,382.90
             616.39,385.92 612.55,386.97 609.00,391.00
             609.00,391.00 605.00,394.00 605.00,394.00
             600.61,395.25 596.28,400.56 593.29,404.00
             585.57,412.87 571.91,431.81 573.00,444.00
             573.00,444.00 574.00,439.00 574.00,439.00
             576.64,438.19 582.61,431.53 584.00,429.00
             587.90,427.85 593.04,421.19 596.25,418.09
             602.09,412.45 609.34,407.72 617.00,405.00
             617.00,405.00 615.00,416.00 615.00,416.00
             611.58,420.84 614.07,430.74 616.06,436.00
             621.98,451.58 632.44,458.82 644.03,469.30
             644.03,469.30 652.00,477.00 652.00,477.00
             652.20,482.79 656.88,493.60 652.00,502.00
             650.05,497.86 648.56,493.55 644.90,490.56
             631.21,479.36 609.47,494.48 600.18,505.00
             598.02,507.45 596.13,510.19 594.45,513.00
             586.85,525.75 592.70,525.36 581.00,539.00
             576.74,539.48 572.68,542.29 569.00,544.42
             565.63,546.38 561.92,548.51 559.09,551.18
             552.82,557.10 543.48,573.17 544.00,582.00
             540.71,586.11 540.95,590.90 540.28,596.00
             540.28,596.00 538.36,611.00 538.36,611.00
             538.36,611.00 538.36,617.99 538.36,617.99
             538.36,617.99 537.76,624.28 537.76,624.28
             537.36,629.04 538.78,632.50 537.00,637.00
             537.00,637.00 536.00,634.00 536.00,634.00
             536.00,634.00 538.00,641.00 538.00,641.00
             535.87,642.02 536.57,642.88 537.00,645.00
             537.00,645.00 537.88,642.00 537.88,642.00
             537.88,642.00 537.88,658.00 537.88,658.00
             537.88,658.00 536.00,680.00 536.00,680.00
             536.00,680.00 534.24,679.00 534.24,679.00
             534.24,679.00 534.24,687.00 534.24,687.00
             534.37,691.78 532.92,696.40 531.84,701.00
             529.59,710.64 529.94,714.97 523.90,724.00
             520.30,729.37 517.02,730.65 513.00,735.00
             513.00,735.00 502.00,733.23 502.00,733.23
             502.00,733.23 492.00,727.00 492.00,727.00
             492.00,727.00 487.69,716.00 487.69,716.00
             484.78,707.85 482.55,696.63 481.44,688.00
             480.69,682.22 481.11,669.22 478.00,665.00
             479.35,659.44 478.83,653.68 478.56,648.00
             478.56,648.00 477.22,631.00 477.22,631.00
             477.22,631.00 475.92,606.00 475.92,606.00
             475.92,606.00 474.14,596.00 474.14,596.00
             473.30,588.54 471.25,575.31 466.00,570.00
             466.00,570.00 461.05,559.00 461.05,559.00
             461.05,559.00 455.90,552.21 455.90,552.21
             455.90,552.21 428.00,534.00 428.00,534.00
             428.42,527.03 421.43,510.09 416.67,505.14
             414.91,503.30 414.18,503.05 412.00,502.00
             411.04,498.50 409.51,496.92 406.00,496.00
             406.00,496.00 404.00,495.00 404.00,495.00
             402.85,491.34 396.43,488.87 393.00,487.75
             379.51,483.33 367.51,487.22 364.00,502.00
             362.80,501.20 362.30,501.26 361.59,499.71
             359.57,495.24 360.95,480.16 365.00,477.00
             365.06,470.73 372.41,466.62 376.99,463.05
             376.99,463.05 387.23,454.29 387.23,454.29
             391.22,450.01 399.76,435.05 400.85,429.34
             401.56,425.55 402.45,418.04 400.00,415.00
             400.00,415.00 401.00,412.00 401.00,412.00
             401.00,412.00 397.00,405.00 397.00,405.00
             416.91,409.98 424.13,429.35 439.00,440.00
             439.00,440.00 440.00,432.00 440.00,432.00
             436.37,429.61 436.43,426.81 434.56,423.00
             430.95,415.67 428.44,413.19 423.74,407.00
             421.27,403.74 420.13,401.10 416.00,400.00
             416.00,400.00 415.00,397.00 415.00,397.00
             415.00,397.00 406.00,392.00 406.00,392.00
             402.91,388.37 401.53,387.45 397.00,386.00
             397.00,386.00 397.54,379.09 397.54,379.09
             397.54,379.09 399.24,373.83 399.24,373.83
             399.24,373.83 399.99,368.00 399.99,368.00
             399.99,368.00 404.00,356.28 404.00,356.28
             404.00,356.28 407.17,341.43 407.17,341.43
             407.17,341.43 416.00,336.00 416.00,336.00
             431.62,337.31 437.82,322.38 449.00,320.00
             449.70,317.71 449.62,318.14 452.00,318.00
             454.07,314.47 454.92,314.05 459.00,314.00
             461.09,310.92 464.35,310.79 467.88,309.70
             467.88,309.70 476.95,307.79 476.95,307.79
             484.55,306.04 486.70,304.54 495.00,306.00 Z
           M 801.00,305.00
           C 801.00,305.00 800.00,305.00 800.00,305.00
             800.00,305.00 801.00,306.00 801.00,306.00
             801.00,306.00 801.00,305.00 801.00,305.00 Z
           M 312.00,312.00
           C 312.00,312.00 311.00,312.00 311.00,312.00
             311.00,312.00 312.00,313.00 312.00,313.00
             312.00,313.00 312.00,312.00 312.00,312.00 Z
           M 223.00,320.00
           C 223.00,320.00 222.00,320.00 222.00,320.00
             222.00,320.00 223.00,321.00 223.00,321.00
             223.00,321.00 223.00,320.00 223.00,320.00 Z
           M 344.00,323.00
           C 344.00,323.00 343.00,323.00 343.00,323.00
             343.00,323.00 344.00,324.00 344.00,324.00
             344.00,324.00 344.00,323.00 344.00,323.00 Z
           M 226.00,325.00
           C 226.00,325.00 225.00,325.00 225.00,325.00
             225.00,325.00 226.00,326.00 226.00,326.00
             226.00,326.00 226.00,325.00 226.00,325.00 Z
           M 352.00,325.00
           C 352.00,325.00 351.00,325.00 351.00,325.00
             351.00,325.00 352.00,326.00 352.00,326.00
             352.00,326.00 352.00,325.00 352.00,325.00 Z
           M 363.00,327.00
           C 363.00,327.00 362.00,327.00 362.00,327.00
             362.00,327.00 363.00,328.00 363.00,328.00
             363.00,328.00 363.00,327.00 363.00,327.00 Z
           M 371.00,328.00
           C 371.00,328.00 370.00,328.00 370.00,328.00
             370.00,328.00 371.00,329.00 371.00,329.00
             371.00,329.00 371.00,328.00 371.00,328.00 Z
           M 229.00,330.00
           C 229.00,330.00 228.00,330.00 228.00,330.00
             228.00,330.00 229.00,331.00 229.00,331.00
             229.00,331.00 229.00,330.00 229.00,330.00 Z
           M 582.00,331.00
           C 582.00,331.00 581.00,331.00 581.00,331.00
             581.00,331.00 582.00,332.00 582.00,332.00
             582.00,332.00 582.00,331.00 582.00,331.00 Z
           M 433.00,332.00
           C 433.00,332.00 432.00,332.00 432.00,332.00
             432.00,332.00 433.00,333.00 433.00,333.00
             433.00,333.00 433.00,332.00 433.00,332.00 Z
           M 231.00,333.00
           C 231.00,333.00 230.00,333.00 230.00,333.00
             230.00,333.00 231.00,334.00 231.00,334.00
             231.00,334.00 231.00,333.00 231.00,333.00 Z
           M 389.00,332.00
           C 389.00,332.00 390.00,332.00 390.00,332.00
             390.00,332.00 389.00,333.00 389.00,333.00
             389.00,333.00 389.00,332.00 389.00,332.00 Z
           M 585.00,333.00
           C 585.00,333.00 584.00,333.00 584.00,333.00
             584.00,333.00 585.00,334.00 585.00,334.00
             585.00,334.00 585.00,333.00 585.00,333.00 Z
           M 587.00,334.00
           C 587.00,334.00 586.00,334.00 586.00,334.00
             586.00,334.00 587.00,335.00 587.00,335.00
             587.00,335.00 587.00,334.00 587.00,334.00 Z
           M 426.00,336.00
           C 426.00,336.00 425.00,336.00 425.00,336.00
             425.00,336.00 426.00,337.00 426.00,337.00
             426.00,337.00 426.00,336.00 426.00,336.00 Z
           M 593.00,337.00
           C 593.00,337.00 592.00,337.00 592.00,337.00
             592.00,337.00 593.00,338.00 593.00,338.00
             593.00,338.00 593.00,337.00 593.00,337.00 Z
           M 597.00,338.00
           C 597.00,338.00 596.00,338.00 596.00,338.00
             596.00,338.00 597.00,339.00 597.00,339.00
             597.00,339.00 597.00,338.00 597.00,338.00 Z
           M 235.00,339.00
           C 235.00,339.00 234.00,339.00 234.00,339.00
             234.00,339.00 235.00,340.00 235.00,340.00
             235.00,340.00 235.00,339.00 235.00,339.00 Z
           M 389.00,338.00
           C 389.00,338.00 390.00,338.00 390.00,338.00
             390.00,338.00 389.00,339.00 389.00,339.00
             389.00,339.00 389.00,338.00 389.00,338.00 Z
           M 386.00,347.00
           C 386.00,347.00 385.00,347.00 385.00,347.00
             385.00,347.00 386.00,348.00 386.00,348.00
             386.00,348.00 386.00,347.00 386.00,347.00 Z
           M 255.00,348.00
           C 255.00,348.00 254.00,348.00 254.00,348.00
             254.00,348.00 255.00,349.00 255.00,349.00
             255.00,349.00 255.00,348.00 255.00,348.00 Z
           M 256.00,349.00
           C 256.00,349.00 255.00,349.00 255.00,349.00
             255.00,349.00 256.00,350.00 256.00,350.00
             256.00,350.00 256.00,349.00 256.00,349.00 Z
           M 257.00,350.00
           C 257.00,350.00 256.00,350.00 256.00,350.00
             256.00,350.00 257.00,351.00 257.00,351.00
             257.00,351.00 257.00,350.00 257.00,350.00 Z
           M 771.00,355.00
           C 771.00,355.00 770.00,355.00 770.00,355.00
             770.00,355.00 771.00,356.00 771.00,356.00
             771.00,356.00 771.00,355.00 771.00,355.00 Z
           M 770.00,356.00
           C 770.00,356.00 769.00,356.00 769.00,356.00
             769.00,356.00 770.00,357.00 770.00,357.00
             770.00,357.00 770.00,356.00 770.00,356.00 Z
           M 272.00,364.00
           C 272.00,364.00 271.00,364.00 271.00,364.00
             271.00,364.00 272.00,365.00 272.00,365.00
             272.00,365.00 272.00,364.00 272.00,364.00 Z
           M 264.00,372.00
           C 264.00,372.00 263.00,372.00 263.00,372.00
             263.00,372.00 264.00,373.00 264.00,373.00
             264.00,373.00 264.00,372.00 264.00,372.00 Z
           M 749.00,376.00
           C 749.00,376.00 748.00,376.00 748.00,376.00
             748.00,376.00 749.00,377.00 749.00,377.00
             749.00,377.00 749.00,376.00 749.00,376.00 Z
           M 748.00,377.00
           C 748.00,377.00 747.00,377.00 747.00,377.00
             747.00,377.00 748.00,378.00 748.00,378.00
             748.00,378.00 748.00,377.00 748.00,377.00 Z
           M 269.00,378.00
           C 269.00,378.00 268.00,378.00 268.00,378.00
             268.00,378.00 269.00,379.00 269.00,379.00
             269.00,379.00 269.00,378.00 269.00,378.00 Z
           M 273.00,380.00
           C 273.00,380.00 272.00,380.00 272.00,380.00
             272.00,380.00 273.00,381.00 273.00,381.00
             273.00,381.00 273.00,380.00 273.00,380.00 Z
           M 739.00,384.00
           C 739.00,384.00 738.00,384.00 738.00,384.00
             738.00,384.00 739.00,385.00 739.00,385.00
             739.00,385.00 739.00,384.00 739.00,384.00 Z
           M 292.00,393.00
           C 292.00,393.00 291.00,393.00 291.00,393.00
             291.00,393.00 292.00,394.00 292.00,394.00
             292.00,394.00 292.00,393.00 292.00,393.00 Z
           M 414.00,396.00
           C 414.00,396.00 413.00,396.00 413.00,396.00
             413.00,396.00 414.00,397.00 414.00,397.00
             414.00,397.00 414.00,396.00 414.00,396.00 Z
           M 507.00,429.00
           C 510.78,427.79 513.01,426.55 515.96,423.82
             519.26,420.75 521.50,417.58 521.89,413.00
             523.30,396.64 503.07,390.12 494.23,404.09
             490.04,410.71 492.90,418.72 498.10,423.82
             501.67,427.31 505.25,427.74 505.04,433.09
             505.04,433.09 504.09,441.00 504.09,441.00
             504.09,441.00 500.91,480.00 500.91,480.00
             500.91,480.00 500.00,492.00 500.00,492.00
             500.00,492.00 500.00,527.00 500.00,527.00
             500.00,527.00 501.25,542.00 501.25,542.00
             501.25,542.00 501.25,550.00 501.25,550.00
             501.25,550.00 502.06,559.91 502.06,559.91
             502.19,562.83 500.84,568.87 504.00,570.00
             502.17,578.01 503.96,585.97 504.00,594.00
             504.00,594.00 506.00,629.00 506.00,629.00
             506.01,635.83 504.76,649.43 508.00,655.00
             510.85,644.83 504.95,647.90 509.00,637.00
             509.00,637.00 507.00,637.00 507.00,637.00
             511.40,627.50 509.88,611.58 510.00,601.00
             510.00,601.00 511.00,588.00 511.00,588.00
             511.00,588.00 512.00,559.00 512.00,559.00
             512.00,559.00 512.91,549.00 512.91,549.00
             512.91,549.00 514.09,524.00 514.09,524.00
             514.09,524.00 514.90,517.00 514.90,517.00
             514.90,517.00 514.00,504.00 514.00,504.00
             513.90,481.79 511.11,450.81 507.00,429.00 Z
           M 715.00,399.00
           C 715.00,399.00 714.00,399.00 714.00,399.00
             714.00,399.00 715.00,400.00 715.00,400.00
             715.00,400.00 715.00,399.00 715.00,399.00 Z
           M 304.00,400.00
           C 304.00,400.00 303.00,400.00 303.00,400.00
             303.00,400.00 304.00,401.00 304.00,401.00
             304.00,401.00 304.00,400.00 304.00,400.00 Z
           M 306.00,401.00
           C 306.00,401.00 305.00,401.00 305.00,401.00
             305.00,401.00 306.00,402.00 306.00,402.00
             306.00,402.00 306.00,401.00 306.00,401.00 Z
           M 705.00,404.00
           C 705.00,404.00 704.00,404.00 704.00,404.00
             704.00,404.00 705.00,405.00 705.00,405.00
             705.00,405.00 705.00,404.00 705.00,404.00 Z
           M 314.00,405.00
           C 314.00,405.00 313.00,405.00 313.00,405.00
             313.00,405.00 314.00,406.00 314.00,406.00
             314.00,406.00 314.00,405.00 314.00,405.00 Z
           M 317.00,407.00
           C 317.00,407.00 316.00,407.00 316.00,407.00
             316.00,407.00 317.00,408.00 317.00,408.00
             317.00,408.00 317.00,407.00 317.00,407.00 Z
           M 652.00,413.00
           C 652.00,413.00 653.00,413.00 653.00,413.00
             653.00,413.00 652.00,414.00 652.00,414.00
             652.00,414.00 652.00,413.00 652.00,413.00 Z
           M 439.00,430.00
           C 439.00,430.00 438.00,430.00 438.00,430.00
             438.00,430.00 439.00,431.00 439.00,431.00
             439.00,431.00 439.00,430.00 439.00,430.00 Z
           M 441.00,436.00
           C 441.00,436.00 440.00,436.00 440.00,436.00
             440.00,436.00 441.00,437.00 441.00,437.00
             441.00,437.00 441.00,436.00 441.00,436.00 Z
           M 442.00,439.00
           C 442.00,439.00 440.00,439.00 440.00,439.00
             440.00,439.00 442.00,445.00 442.00,445.00
             442.00,445.00 442.00,439.00 442.00,439.00 Z
           M 396.00,442.00
           C 396.00,442.00 395.00,442.00 395.00,442.00
             395.00,442.00 396.00,443.00 396.00,443.00
             396.00,443.00 396.00,442.00 396.00,442.00 Z
           M 573.00,447.00
           C 573.00,447.00 572.00,447.00 572.00,447.00
             572.00,447.00 573.00,448.00 573.00,448.00
             573.00,448.00 573.00,447.00 573.00,447.00 Z
           M 572.00,449.00
           C 572.00,449.00 571.00,449.00 571.00,449.00
             571.00,449.00 572.00,450.00 572.00,450.00
             572.00,450.00 572.00,449.00 572.00,449.00 Z
           M 368.00,472.00
           C 368.00,472.00 367.00,472.00 367.00,472.00
             367.00,472.00 368.00,473.00 368.00,473.00
             368.00,473.00 368.00,472.00 368.00,472.00 Z
           M 367.00,473.00
           C 367.00,473.00 366.00,473.00 366.00,473.00
             366.00,473.00 367.00,474.00 367.00,474.00
             367.00,474.00 367.00,473.00 367.00,473.00 Z
           M 366.00,474.00
           C 366.00,474.00 365.00,474.00 365.00,474.00
             365.00,474.00 366.00,475.00 366.00,475.00
             366.00,475.00 366.00,474.00 366.00,474.00 Z
           M 310.00,497.00
           C 313.14,497.38 316.12,497.13 319.00,498.66
             320.74,499.59 323.32,501.65 324.57,503.17
             332.25,512.59 319.80,525.82 309.04,518.85
             306.80,517.40 305.09,515.53 304.09,512.99
             303.17,510.13 304.18,505.56 304.09,502.00
             304.09,502.00 310.00,497.00 310.00,497.00 Z
           M 694.00,498.00
           C 698.17,498.10 701.11,495.84 704.00,499.00
             714.77,497.19 716.48,509.63 711.86,516.79
             709.26,520.83 704.34,521.10 700.00,520.80
             696.93,520.60 695.45,520.09 693.21,517.85
             691.67,516.31 690.28,514.10 689.83,512.00
             688.64,508.62 690.00,505.39 689.83,502.00
             689.83,502.00 694.00,498.00 694.00,498.00 Z
           M 710.00,500.00
           C 710.00,500.00 709.00,500.00 709.00,500.00
             709.00,500.00 710.00,501.00 710.00,501.00
             710.00,501.00 710.00,500.00 710.00,500.00 Z
           M 711.00,501.00
           C 711.00,501.00 710.00,501.00 710.00,501.00
             710.00,501.00 711.00,502.00 711.00,502.00
             711.00,502.00 711.00,501.00 711.00,501.00 Z
           M 740.00,500.00
           C 740.00,500.00 745.00,501.00 745.00,501.00
             749.16,507.55 750.13,508.58 747.00,516.00
             744.41,515.78 740.37,516.23 738.21,515.26
             734.09,513.41 733.26,507.77 735.72,504.26
             735.72,504.26 740.00,500.00 740.00,500.00 Z
           M 712.00,502.00
           C 712.00,502.00 711.00,502.00 711.00,502.00
             711.00,502.00 712.00,503.00 712.00,503.00
             712.00,503.00 712.00,502.00 712.00,502.00 Z
           M 272.02,503.04
           C 281.41,500.60 283.01,511.95 277.77,514.96
             274.51,516.84 268.77,514.45 267.66,510.90
             266.51,507.25 269.45,504.87 272.02,503.04 Z
           M 691.00,506.00
           C 691.00,506.00 690.00,506.00 690.00,506.00
             690.00,506.00 691.00,507.00 691.00,507.00
             691.00,507.00 691.00,506.00 691.00,506.00 Z
           M 371.00,506.00
           C 374.77,510.92 373.72,518.49 375.23,525.00
             378.01,536.98 383.64,549.56 393.04,557.71
             400.34,564.05 410.29,568.46 420.00,565.84
             427.86,563.73 430.12,560.26 434.00,560.73
             436.54,561.03 440.04,563.71 442.00,565.31
             447.07,569.46 456.34,580.45 457.00,587.00
             457.00,587.00 462.00,594.00 462.00,594.00
             462.00,594.00 467.96,631.00 467.96,631.00
             467.96,631.00 469.00,643.00 469.00,643.00
             472.51,646.02 471.99,651.70 472.00,656.00
             472.00,656.00 472.00,677.00 472.00,677.00
             468.97,678.40 471.23,685.63 470.89,688.91
             470.89,688.91 469.80,694.17 469.80,694.17
             469.80,694.17 469.80,701.00 469.80,701.00
             469.80,701.00 468.03,710.00 468.03,710.00
             467.82,715.71 470.28,720.26 468.03,726.00
             468.03,726.00 467.00,718.00 467.00,718.00
             467.00,718.00 467.00,732.00 467.00,732.00
             467.00,732.00 468.00,747.00 468.00,747.00
             468.02,751.20 467.40,753.47 470.00,757.00
             468.27,764.71 470.27,766.02 471.23,773.00
             471.23,773.00 471.23,781.83 471.23,781.83
             471.23,781.83 474.10,801.00 474.10,801.00
             475.08,805.79 474.63,808.05 478.00,812.00
             478.00,812.00 477.00,814.00 477.00,814.00
             477.00,814.00 479.00,814.00 479.00,814.00
             479.54,821.87 490.42,828.37 493.00,819.00
             496.44,814.70 496.17,808.95 497.48,803.72
             500.76,790.59 502.24,771.21 507.00,760.00
             507.00,760.00 509.00,760.00 509.00,760.00
             509.00,760.00 512.54,778.00 512.54,778.00
             512.54,778.00 515.00,787.00 515.00,787.00
             514.67,791.84 515.05,801.15 518.00,805.00
             517.06,814.23 520.80,817.06 525.00,824.00
             525.00,824.00 529.00,824.00 529.00,824.00
             529.00,824.00 535.00,818.00 535.00,818.00
             535.14,814.56 535.24,813.20 538.00,811.00
             538.00,811.00 541.82,795.09 541.82,795.09
             541.82,795.09 542.65,787.82 542.65,787.82
             542.65,787.82 545.70,770.00 545.70,770.00
             545.70,770.00 546.62,752.00 546.62,752.00
             546.62,752.00 547.95,744.00 547.95,744.00
             547.95,744.00 547.95,721.00 547.95,721.00
             547.95,721.00 545.60,694.00 545.60,694.00
             545.46,691.39 546.64,689.10 544.02,688.00
             544.02,688.00 544.02,678.00 544.02,678.00
             544.02,678.00 544.92,669.00 544.92,669.00
             544.92,669.00 544.23,661.00 544.23,661.00
             544.23,661.00 544.23,647.00 544.23,647.00
             544.23,647.00 549.54,616.00 549.54,616.00
             552.16,600.59 551.85,595.26 560.45,581.00
             563.34,576.20 568.78,568.89 573.01,565.34
             573.01,565.34 580.00,560.00 580.00,560.00
             585.04,561.92 589.61,564.98 595.00,565.89
             604.04,567.42 616.29,562.13 622.83,556.00
             625.43,553.56 628.10,551.48 629.00,548.00
             635.76,542.04 639.15,530.57 641.12,522.00
             642.12,517.63 642.28,512.64 645.00,509.00
             647.86,515.19 650.45,524.16 649.66,531.00
             649.66,531.00 648.18,539.00 648.18,539.00
             646.58,551.49 645.22,557.14 636.00,566.27
             631.97,570.26 627.84,573.44 623.00,576.39
             619.83,578.32 616.12,579.31 615.00,583.00
             611.14,583.88 608.15,587.19 604.97,589.51
             595.86,596.13 582.82,609.01 583.00,621.00
             579.76,625.05 578.81,631.01 580.00,636.00
             582.08,627.22 585.11,625.41 590.83,619.00
             597.00,612.09 603.15,605.05 613.00,604.00
             607.14,617.60 604.02,626.87 604.00,642.00
             604.00,642.00 603.47,672.00 603.47,672.00
             602.33,676.83 598.58,683.76 596.00,688.00
             596.00,688.00 594.00,687.00 594.00,687.00
             590.56,697.74 588.93,694.42 584.35,702.00
             581.78,706.27 579.89,713.09 576.00,716.00
             576.00,706.82 575.68,703.21 578.00,694.00
             578.00,694.00 574.00,699.00 574.00,699.00
             574.00,699.00 571.00,692.00 571.00,692.00
             571.00,692.00 571.00,694.00 571.00,694.00
             571.00,694.00 570.00,694.00 570.00,694.00
             570.00,694.00 571.00,670.00 571.00,670.00
             570.19,675.21 569.44,676.27 568.04,681.00
             564.85,691.75 564.13,698.94 564.00,710.00
             564.00,710.00 563.00,723.00 563.00,723.00
             563.00,723.00 561.72,744.00 561.72,744.00
             561.72,744.00 558.08,780.00 558.08,780.00
             558.08,780.00 558.08,797.00 558.08,797.00
             558.08,797.00 559.99,812.00 559.99,812.00
             560.04,814.49 560.07,817.62 559.35,820.00
             556.66,828.95 541.76,843.91 533.00,847.03
             530.21,848.03 525.95,848.22 523.00,847.89
             514.59,846.95 513.80,836.69 512.13,830.00
             511.34,826.85 511.29,823.14 508.00,822.00
             508.00,822.00 506.00,818.00 506.00,818.00
             506.00,818.00 507.00,822.00 507.00,822.00
             503.57,825.99 503.51,828.94 504.00,834.00
             501.07,839.16 500.39,844.50 493.99,847.69
             489.34,850.00 484.40,848.34 480.00,846.33
             470.41,841.96 461.23,831.83 457.16,822.00
             454.82,815.08 456.97,808.12 457.16,801.00
             457.16,801.00 457.16,773.00 457.16,773.00
             457.16,773.00 453.29,742.00 453.29,742.00
             453.29,742.00 452.00,717.00 452.00,717.00
             451.98,706.65 447.89,681.28 444.00,672.00
             444.00,672.00 444.00,701.00 444.00,701.00
             444.00,701.00 441.00,697.00 441.00,697.00
             436.93,702.36 440.72,709.35 438.00,716.00
             433.51,705.81 432.90,703.51 425.96,694.01
             421.56,687.99 417.18,684.62 413.95,677.00
             413.95,677.00 410.30,658.00 410.30,658.00
             410.30,658.00 411.69,650.00 411.69,650.00
             411.90,648.19 410.77,631.64 410.15,630.45
             409.29,628.81 408.16,629.06 408.00,629.00
             409.54,623.50 409.02,617.31 405.00,613.00
             405.00,613.00 403.00,604.00 403.00,604.00
             412.28,605.27 411.82,610.38 418.00,612.00
             418.86,615.27 419.74,616.16 423.00,617.00
             424.24,621.34 431.39,628.03 435.00,631.00
             435.00,631.00 437.00,638.00 437.00,638.00
             437.00,638.00 436.00,627.00 436.00,627.00
             436.00,627.00 433.00,626.00 433.00,626.00
             434.48,618.10 428.32,605.68 422.96,600.00
             404.90,580.88 396.61,582.10 382.04,569.54
             373.73,562.38 366.92,548.00 366.36,537.00
             366.22,532.45 365.70,527.51 366.36,523.00
             367.37,514.63 369.04,512.96 371.00,506.00 Z
           M 694.00,516.00
           C 694.00,516.00 693.00,516.00 693.00,516.00
             693.00,516.00 694.00,517.00 694.00,517.00
             694.00,517.00 694.00,516.00 694.00,516.00 Z
           M 695.00,517.00
           C 695.00,517.00 694.00,517.00 694.00,517.00
             694.00,517.00 695.00,518.00 695.00,518.00
             695.00,518.00 695.00,517.00 695.00,517.00 Z
           M 698.00,519.00
           C 698.00,519.00 697.00,519.00 697.00,519.00
             697.00,519.00 698.00,520.00 698.00,520.00
             698.00,520.00 698.00,519.00 698.00,519.00 Z
           M 435.00,625.00
           C 435.00,625.00 434.00,625.00 434.00,625.00
             434.00,625.00 435.00,626.00 435.00,626.00
             435.00,626.00 435.00,625.00 435.00,625.00 Z
           M 434.00,631.00
           C 434.00,631.00 433.00,631.00 433.00,631.00
             433.00,631.00 434.00,632.00 434.00,632.00
             434.00,632.00 434.00,631.00 434.00,631.00 Z
           M 509.00,640.00
           C 509.00,640.00 508.00,640.00 508.00,640.00
             508.00,640.00 509.00,641.00 509.00,641.00
             509.00,641.00 509.00,640.00 509.00,640.00 Z
           M 477.00,659.00
           C 477.00,659.00 478.00,659.00 478.00,659.00
             478.00,659.00 477.00,660.00 477.00,660.00
             477.00,660.00 477.00,659.00 477.00,659.00 Z
           M 508.00,662.00
           C 506.61,665.50 506.61,669.50 508.00,673.00
             508.00,673.00 508.00,662.00 508.00,662.00 Z
           M 478.00,666.00
           C 478.00,666.00 479.00,666.00 479.00,666.00
             479.00,666.00 478.00,667.00 478.00,667.00
             478.00,667.00 478.00,666.00 478.00,666.00 Z
           M 573.00,668.00
           C 573.00,668.00 572.00,668.00 572.00,668.00
             572.00,668.00 573.00,669.00 573.00,669.00
             573.00,669.00 573.00,668.00 573.00,668.00 Z
           M 597.00,684.00
           C 597.00,684.00 596.00,684.00 596.00,684.00
             596.00,684.00 597.00,685.00 597.00,685.00
             597.00,685.00 597.00,684.00 597.00,684.00 Z
           M 534.00,687.00
           C 534.00,687.00 533.00,687.00 533.00,687.00
             533.00,687.00 534.00,688.00 534.00,688.00
             534.00,688.00 534.00,687.00 534.00,687.00 Z
           M 590.00,694.00
           C 590.00,694.00 589.00,694.00 589.00,694.00
             589.00,694.00 590.00,695.00 590.00,695.00
             590.00,695.00 590.00,694.00 590.00,694.00 Z" />
</svg>
