<svg width="24" height="24" viewBox="0 0 24 24" fill="none" xmlns="http://www.w3.org/2000/svg">
<path fill-rule="evenodd" clip-rule="evenodd" d="M12 24C18.6274 24 24 18.6274 24 12C24 5.37258 18.6274 0 12 0C5.37258 0 0 5.37258 0 12C0 18.6274 5.37258 24 12 24ZM14.9767 18H17.8986L13.6652 6.09668H10.486L6.15295 18H9.05823L9.89661 15.3521H14.13L14.9767 18ZM12.2374 9.29248L13.5157 13.2935H10.4694L11.7643 9.25928C11.875 8.91618 11.9441 8.57031 11.9718 8.22168H12.0382C12.0769 8.63672 12.1434 8.99365 12.2374 9.29248Z" fill="#55A43B"/>
</svg>
