<svg width="24" height="24" viewBox="0 0 24 24" fill="none" xmlns="http://www.w3.org/2000/svg">
<path fill-rule="evenodd" clip-rule="evenodd" d="M12 24C18.6274 24 24 18.6274 24 12C24 5.37258 18.6274 0 12 0C5.37258 0 0 5.37258 0 12C0 18.6274 5.37258 24 12 24ZM7.86133 6.34668V18.25H12.4351C13.7853 18.25 14.8506 17.9318 15.6309 17.2954C16.4111 16.6535 16.8013 15.7874 16.8013 14.6973C16.8013 13.9502 16.5467 13.3166 16.0376 12.7964C15.534 12.2762 14.8589 11.9635 14.0122 11.8584V11.8252C14.6873 11.637 15.2407 11.3022 15.6724 10.8208C16.1095 10.3394 16.3281 9.77767 16.3281 9.13574C16.3281 8.25033 15.9712 7.56413 15.2573 7.07715C14.5435 6.59017 13.5225 6.34668 12.1943 6.34668H7.86133ZM10.5425 11.1445V8.32227H11.5469C12.8529 8.32227 13.5059 8.75944 13.5059 9.63379C13.5059 10.1042 13.3454 10.4749 13.0244 10.7461C12.709 11.0117 12.2746 11.1445 11.7212 11.1445H10.5425ZM10.5425 16.2744V13.1367H12.0117C12.6315 13.1367 13.113 13.2723 13.4561 13.5435C13.8047 13.8146 13.979 14.1881 13.979 14.6641C13.979 15.1621 13.8019 15.555 13.4478 15.8428C13.0991 16.1305 12.6149 16.2744 11.9951 16.2744H10.5425Z" fill="#DA1725"/>
</svg>
