<svg width="34" height="34" viewBox="0 0 34 34" fill="none" xmlns="http://www.w3.org/2000/svg">
<path d="M23.9533 5.44186C19.0575 2.945 15.6776 2.93463 10.1359 5.46188C10.0238 5.51297 9.92522 5.3469 10.0258 5.27589L17.4386 0.0433595C17.475 0.0176779 17.5239 0.0191496 17.5587 0.0469694L24.0739 5.25915C24.1696 5.33571 24.0624 5.49754 23.9533 5.44186Z" fill="#D6E1F6"/>
<path d="M23.9533 28.5581C19.0575 31.055 15.6776 31.0654 10.1359 28.5381C10.0238 28.487 9.92522 28.6531 10.0258 28.7241L17.4386 33.9566C17.475 33.9823 17.5239 33.9809 17.5587 33.953L24.0739 28.7409C24.1696 28.6643 24.0624 28.5025 23.9533 28.5581Z" fill="#D6E1F6"/>
<path d="M28.5581 10.5467C31.055 15.4425 31.0654 18.8224 28.5381 24.3641C28.487 24.4762 28.6531 24.5748 28.7241 24.4742L33.9566 17.0614C33.9823 17.025 33.9809 16.9761 33.953 16.9413L28.7409 10.4261C28.6643 10.3304 28.5025 10.4376 28.5581 10.5467Z" fill="#D6E1F6"/>
<path d="M5.44186 10.5467C2.945 15.4425 2.93463 18.8224 5.46188 24.3641C5.51297 24.4762 5.3469 24.5748 5.27589 24.4742L0.0433595 17.0614C0.0176779 17.025 0.0191496 16.9761 0.0469694 16.9413L5.25915 10.4261C5.33571 10.3304 5.49754 10.4376 5.44186 10.5467Z" fill="#D6E1F6"/>
<path d="M22.8472 23H19.7676L17.9165 19.937C17.7782 19.7046 17.6453 19.4971 17.5181 19.3145C17.3908 19.1318 17.2607 18.9769 17.1279 18.8496C17.0007 18.7168 16.8651 18.6172 16.7212 18.5508C16.5828 18.4788 16.4307 18.4429 16.2646 18.4429H15.5425V23H12.8613V11.0967H17.1113C20 11.0967 21.4443 12.1758 21.4443 14.334C21.4443 14.749 21.3807 15.1336 21.2534 15.4878C21.1261 15.8364 20.9463 16.1519 20.7139 16.4341C20.4814 16.7163 20.1992 16.9598 19.8672 17.1646C19.5407 17.3693 19.1755 17.5298 18.7715 17.646V17.6792C18.9486 17.7345 19.1201 17.8258 19.2861 17.9531C19.4521 18.0749 19.6126 18.2188 19.7676 18.3848C19.9225 18.5508 20.0692 18.7306 20.2075 18.9243C20.3514 19.1125 20.4814 19.2979 20.5977 19.4805L22.8472 23ZM15.5425 13.1055V16.4175H16.7046C17.2801 16.4175 17.7422 16.2515 18.0908 15.9194C18.445 15.5819 18.6221 15.1641 18.6221 14.666C18.6221 13.6257 17.9995 13.1055 16.7544 13.1055H15.5425Z" fill="#D6E1F6"/>
</svg>
