<svg width="26" height="26" viewBox="0 0 26 26" fill="none" xmlns="http://www.w3.org/2000/svg">
<path d="M12.75 7.5L15.3481 4.125H10.1519L12.75 7.5Z" fill="#D6E1F6"/>
<rect x="6.75" y="19.5" width="12" height="3" fill="#D6E1F6"/>
<path fill-rule="evenodd" clip-rule="evenodd" d="M6 7.5C2.68629 7.5 0 10.1863 0 13.5C0 16.8137 2.68629 19.5 6 19.5H19.5C22.8137 19.5 25.5 16.8137 25.5 13.5C25.5 10.1863 22.8137 7.5 19.5 7.5H6ZM14.4507 18.375H16.7604L15.0732 15.7354C14.9861 15.5984 14.8885 15.4594 14.7806 15.3182C14.6769 15.173 14.5669 15.0381 14.4507 14.9136C14.3345 14.7891 14.2141 14.6812 14.0896 14.5898C13.9651 14.4944 13.8364 14.4259 13.7036 14.3844V14.3595C14.0066 14.2723 14.2805 14.152 14.5254 13.9984C14.7744 13.8448 14.9861 13.6622 15.1604 13.4506C15.3347 13.2389 15.4696 13.0023 15.5651 12.7408C15.6605 12.4752 15.7083 12.1868 15.7083 11.8755C15.7083 10.2568 14.625 9.44751 12.4585 9.44751H9.271V18.375H11.2819V14.9572H11.8235C11.948 14.9572 12.0621 14.9841 12.1659 15.0381C12.2738 15.0879 12.3755 15.1626 12.4709 15.2622C12.5706 15.3577 12.6681 15.4739 12.7635 15.6108C12.859 15.7478 12.9586 15.9034 13.0624 16.0778L14.4507 18.375ZM11.2819 13.4381V10.9541H12.1908C13.1246 10.9541 13.5916 11.3442 13.5916 12.1245C13.5916 12.498 13.4587 12.8114 13.1931 13.0646C12.9316 13.3136 12.5851 13.4381 12.1534 13.4381H11.2819Z" fill="#D6E1F6"/>
</svg>
