<svg width="24" height="24" viewBox="0 0 24 24" fill="none" xmlns="http://www.w3.org/2000/svg">
<path fill-rule="evenodd" clip-rule="evenodd" d="M12 24C18.6274 24 24 18.6274 24 12C24 5.37258 18.6274 0 12 0C5.37259 0 0 5.37258 0 12C0 18.6274 5.37259 24 12 24ZM14.2024 18H17.3816L13.7126 11.9985L17.282 6.09668H14.2937L12.4011 9.63281C12.2185 10.0921 12.094 10.438 12.0276 10.6704H11.9944C11.8892 10.283 11.7703 9.94824 11.6375 9.66602L9.93579 6.09668H6.67358L10.1433 12.0483L6.34985 18H9.54565L11.6042 14.1567C11.7481 13.786 11.8394 13.5093 11.8782 13.3267H11.9114C11.9944 13.714 12.0746 13.9797 12.1521 14.1235L14.2024 18Z" fill="#039AC9"/>
</svg>
